<mxfile host="app.diagrams.net" modified="2021-05-26T03:36:57.510Z" agent="5.0 (Windows NT 10.0; Win64; x64) AppleWebKit/537.36 (KHTML, like Gecko) Chrome/90.0.4430.212 Safari/537.36" etag="4A9mJ7lkGxM6xbEzW09j" version="14.7.1" type="github">
  <diagram id="BhUlbcAXnAmOy7gOperB" name="Page-1">
    <mxGraphModel dx="8040" dy="2647" grid="1" gridSize="10" guides="1" tooltips="1" connect="1" arrows="1" fold="1" page="1" pageScale="1" pageWidth="3300" pageHeight="4681" background="#F1FAEE" math="0" shadow="0">
      <root>
        <mxCell id="0" />
        <mxCell id="1" parent="0" />
        <mxCell id="mLnGncNZCkYvfxPz8yqP-1" value="" style="shape=table;html=1;whiteSpace=wrap;startSize=0;container=1;collapsible=0;childLayout=tableLayout;fontSize=65;strokeColor=#457B9D;fillColor=#A8DADC;fontColor=#1D3557;shadow=1;" vertex="1" parent="1">
          <mxGeometry x="-170" y="230" width="4480" height="2440" as="geometry" />
        </mxCell>
        <mxCell id="mLnGncNZCkYvfxPz8yqP-2" value="" style="shape=partialRectangle;html=1;whiteSpace=wrap;collapsible=0;dropTarget=0;pointerEvents=0;fillColor=none;top=0;left=0;bottom=0;right=0;points=[[0,0.5],[1,0.5]];portConstraint=eastwest;fontSize=65;strokeColor=#457B9D;fontColor=#1D3557;" vertex="1" parent="mLnGncNZCkYvfxPz8yqP-1">
          <mxGeometry width="4480" height="170" as="geometry" />
        </mxCell>
        <mxCell id="mLnGncNZCkYvfxPz8yqP-3" value="&lt;font style=&quot;font-size: 65px&quot;&gt;名师辅导班&lt;br style=&quot;font-size: 65px;&quot;&gt;（短视频挂件）&lt;br style=&quot;font-size: 65px;&quot;&gt;&lt;/font&gt;" style="shape=partialRectangle;html=1;whiteSpace=wrap;connectable=0;fillColor=none;top=0;left=0;bottom=0;right=0;overflow=hidden;fontSize=65;strokeColor=#457B9D;fontColor=#1D3557;" vertex="1" parent="mLnGncNZCkYvfxPz8yqP-2">
          <mxGeometry width="1370" height="170" as="geometry" />
        </mxCell>
        <mxCell id="mLnGncNZCkYvfxPz8yqP-4" value="名师辅导班&lt;br&gt;（app）" style="shape=partialRectangle;html=1;whiteSpace=wrap;connectable=0;fillColor=none;top=0;left=0;bottom=0;right=0;overflow=hidden;fontSize=65;strokeColor=#457B9D;fontColor=#1D3557;" vertex="1" parent="mLnGncNZCkYvfxPz8yqP-2">
          <mxGeometry x="1370" width="1110" height="170" as="geometry" />
        </mxCell>
        <mxCell id="mLnGncNZCkYvfxPz8yqP-5" value="名师业务后台" style="shape=partialRectangle;html=1;whiteSpace=wrap;connectable=0;fillColor=none;top=0;left=0;bottom=0;right=0;overflow=hidden;fontSize=65;strokeColor=#457B9D;fontColor=#1D3557;" vertex="1" parent="mLnGncNZCkYvfxPz8yqP-2">
          <mxGeometry x="2480" width="800" height="170" as="geometry" />
        </mxCell>
        <mxCell id="mLnGncNZCkYvfxPz8yqP-67" value="名师辅导班（推荐算法）" style="shape=partialRectangle;html=1;whiteSpace=wrap;connectable=0;fillColor=none;top=0;left=0;bottom=0;right=0;overflow=hidden;fontSize=65;strokeColor=#457B9D;fontColor=#1D3557;" vertex="1" parent="mLnGncNZCkYvfxPz8yqP-2">
          <mxGeometry x="3280" width="1200" height="170" as="geometry" />
        </mxCell>
        <mxCell id="mLnGncNZCkYvfxPz8yqP-6" value="" style="shape=partialRectangle;html=1;whiteSpace=wrap;collapsible=0;dropTarget=0;pointerEvents=0;fillColor=none;top=0;left=0;bottom=0;right=0;points=[[0,0.5],[1,0.5]];portConstraint=eastwest;fontSize=65;strokeColor=#457B9D;fontColor=#1D3557;" vertex="1" parent="mLnGncNZCkYvfxPz8yqP-1">
          <mxGeometry y="170" width="4480" height="2270" as="geometry" />
        </mxCell>
        <mxCell id="mLnGncNZCkYvfxPz8yqP-7" value="" style="shape=partialRectangle;html=1;whiteSpace=wrap;connectable=0;fillColor=none;top=0;left=0;bottom=0;right=0;overflow=hidden;fontSize=65;strokeColor=#457B9D;fontColor=#1D3557;" vertex="1" parent="mLnGncNZCkYvfxPz8yqP-6">
          <mxGeometry width="1370" height="2270" as="geometry" />
        </mxCell>
        <mxCell id="mLnGncNZCkYvfxPz8yqP-8" value="" style="shape=partialRectangle;html=1;whiteSpace=wrap;connectable=0;fillColor=none;top=0;left=0;bottom=0;right=0;overflow=hidden;fontSize=65;strokeColor=#457B9D;fontColor=#1D3557;" vertex="1" parent="mLnGncNZCkYvfxPz8yqP-6">
          <mxGeometry x="1370" width="1110" height="2270" as="geometry" />
        </mxCell>
        <mxCell id="mLnGncNZCkYvfxPz8yqP-9" value="" style="shape=partialRectangle;html=1;whiteSpace=wrap;connectable=0;fillColor=none;top=0;left=0;bottom=0;right=0;overflow=hidden;fontSize=65;strokeColor=#457B9D;fontColor=#1D3557;" vertex="1" parent="mLnGncNZCkYvfxPz8yqP-6">
          <mxGeometry x="2480" width="800" height="2270" as="geometry" />
        </mxCell>
        <mxCell id="mLnGncNZCkYvfxPz8yqP-68" style="shape=partialRectangle;html=1;whiteSpace=wrap;connectable=0;fillColor=none;top=0;left=0;bottom=0;right=0;overflow=hidden;fontSize=65;strokeColor=#457B9D;fontColor=#1D3557;" vertex="1" parent="mLnGncNZCkYvfxPz8yqP-6">
          <mxGeometry x="3280" width="1200" height="2270" as="geometry" />
        </mxCell>
        <mxCell id="mLnGncNZCkYvfxPz8yqP-16" value="读取" style="edgeStyle=orthogonalEdgeStyle;rounded=0;orthogonalLoop=1;jettySize=auto;html=1;exitX=0.5;exitY=0.5;exitDx=0;exitDy=60;exitPerimeter=0;entryX=0.5;entryY=0;entryDx=0;entryDy=0;fontSize=65;strokeWidth=3;strokeColor=#457B9D;labelBackgroundColor=#F1FAEE;fontColor=#1D3557;" edge="1" parent="1" source="mLnGncNZCkYvfxPz8yqP-14" target="mLnGncNZCkYvfxPz8yqP-31">
          <mxGeometry relative="1" as="geometry">
            <mxPoint x="650" y="670" as="targetPoint" />
          </mxGeometry>
        </mxCell>
        <mxCell id="mLnGncNZCkYvfxPz8yqP-14" value="开始" style="html=1;dashed=0;whitespace=wrap;shape=mxgraph.dfd.start;fontSize=65;fillColor=#A8DADC;strokeColor=#457B9D;fontColor=#1D3557;" vertex="1" parent="1">
          <mxGeometry x="500" y="440" width="300" height="120" as="geometry" />
        </mxCell>
        <mxCell id="mLnGncNZCkYvfxPz8yqP-20" value="否" style="edgeStyle=orthogonalEdgeStyle;rounded=0;orthogonalLoop=1;jettySize=auto;html=1;exitX=0;exitY=0.5;exitDx=0;exitDy=0;fontSize=65;strokeColor=#457B9D;strokeWidth=3;labelBackgroundColor=#F1FAEE;fontColor=#1D3557;" edge="1" parent="1" source="mLnGncNZCkYvfxPz8yqP-17" target="mLnGncNZCkYvfxPz8yqP-19">
          <mxGeometry relative="1" as="geometry" />
        </mxCell>
        <mxCell id="mLnGncNZCkYvfxPz8yqP-26" value="是" style="edgeStyle=orthogonalEdgeStyle;rounded=0;orthogonalLoop=1;jettySize=auto;html=1;exitX=0.5;exitY=1;exitDx=0;exitDy=0;fontSize=65;strokeColor=#457B9D;strokeWidth=3;labelBackgroundColor=#F1FAEE;fontColor=#1D3557;" edge="1" parent="1" source="mLnGncNZCkYvfxPz8yqP-17" target="mLnGncNZCkYvfxPz8yqP-25">
          <mxGeometry relative="1" as="geometry">
            <Array as="points">
              <mxPoint x="650" y="1250" />
              <mxPoint x="650" y="1250" />
            </Array>
          </mxGeometry>
        </mxCell>
        <mxCell id="mLnGncNZCkYvfxPz8yqP-17" value="&lt;font style=&quot;font-size: 50px&quot;&gt;判断是否&lt;br&gt;有缓存&lt;/font&gt;" style="rhombus;whiteSpace=wrap;html=1;fontSize=65;strokeColor=#457B9D;fillColor=#A8DADC;fontColor=#1D3557;" vertex="1" parent="1">
          <mxGeometry x="432.5" y="870" width="435" height="270" as="geometry" />
        </mxCell>
        <mxCell id="mLnGncNZCkYvfxPz8yqP-22" style="edgeStyle=orthogonalEdgeStyle;rounded=0;orthogonalLoop=1;jettySize=auto;html=1;exitX=0.5;exitY=1;exitDx=0;exitDy=0;fontSize=65;strokeColor=#457B9D;strokeWidth=3;labelBackgroundColor=#F1FAEE;fontColor=#1D3557;" edge="1" parent="1" source="mLnGncNZCkYvfxPz8yqP-19" target="mLnGncNZCkYvfxPz8yqP-21">
          <mxGeometry relative="1" as="geometry" />
        </mxCell>
        <mxCell id="mLnGncNZCkYvfxPz8yqP-19" value="读取默认数据" style="rounded=0;whiteSpace=wrap;html=1;fontSize=65;strokeColor=#457B9D;fillColor=#A8DADC;fontColor=#1D3557;" vertex="1" parent="1">
          <mxGeometry x="-80" y="940" width="280" height="130" as="geometry" />
        </mxCell>
        <mxCell id="mLnGncNZCkYvfxPz8yqP-24" style="edgeStyle=orthogonalEdgeStyle;rounded=0;orthogonalLoop=1;jettySize=auto;html=1;exitX=0.5;exitY=1;exitDx=0;exitDy=0;entryX=0;entryY=0.5;entryDx=0;entryDy=0;entryPerimeter=0;fontSize=65;strokeColor=#457B9D;strokeWidth=3;labelBackgroundColor=#F1FAEE;fontColor=#1D3557;" edge="1" parent="1" source="mLnGncNZCkYvfxPz8yqP-21" target="mLnGncNZCkYvfxPz8yqP-23">
          <mxGeometry relative="1" as="geometry" />
        </mxCell>
        <mxCell id="mLnGncNZCkYvfxPz8yqP-21" value="展示默认数据" style="rounded=0;whiteSpace=wrap;html=1;fontSize=65;strokeColor=#457B9D;fillColor=#A8DADC;fontColor=#1D3557;" vertex="1" parent="1">
          <mxGeometry x="-140" y="1660" width="400" height="140" as="geometry" />
        </mxCell>
        <mxCell id="mLnGncNZCkYvfxPz8yqP-23" value="结束" style="html=1;dashed=0;whitespace=wrap;shape=mxgraph.dfd.start;fontSize=65;strokeColor=#457B9D;fillColor=#A8DADC;fontColor=#1D3557;" vertex="1" parent="1">
          <mxGeometry x="500" y="2160" width="300" height="120" as="geometry" />
        </mxCell>
        <mxCell id="mLnGncNZCkYvfxPz8yqP-28" style="edgeStyle=orthogonalEdgeStyle;rounded=0;orthogonalLoop=1;jettySize=auto;html=1;fontSize=65;strokeColor=#457B9D;strokeWidth=3;labelBackgroundColor=#F1FAEE;fontColor=#1D3557;" edge="1" parent="1" source="mLnGncNZCkYvfxPz8yqP-25" target="mLnGncNZCkYvfxPz8yqP-27">
          <mxGeometry relative="1" as="geometry" />
        </mxCell>
        <mxCell id="mLnGncNZCkYvfxPz8yqP-25" value="读取缓存数据" style="rounded=0;whiteSpace=wrap;html=1;fontSize=65;strokeColor=#457B9D;fillColor=#A8DADC;fontColor=#1D3557;" vertex="1" parent="1">
          <mxGeometry x="450" y="1340" width="400" height="150" as="geometry" />
        </mxCell>
        <mxCell id="mLnGncNZCkYvfxPz8yqP-30" style="edgeStyle=orthogonalEdgeStyle;rounded=0;orthogonalLoop=1;jettySize=auto;html=1;exitX=0.5;exitY=1;exitDx=0;exitDy=0;fontSize=65;strokeColor=#457B9D;strokeWidth=3;labelBackgroundColor=#F1FAEE;fontColor=#1D3557;" edge="1" parent="1" source="mLnGncNZCkYvfxPz8yqP-27" target="mLnGncNZCkYvfxPz8yqP-23">
          <mxGeometry relative="1" as="geometry" />
        </mxCell>
        <mxCell id="mLnGncNZCkYvfxPz8yqP-27" value="展示缓存数据" style="rounded=0;whiteSpace=wrap;html=1;fontSize=65;strokeColor=#457B9D;fillColor=#A8DADC;fontColor=#1D3557;" vertex="1" parent="1">
          <mxGeometry x="450" y="1660" width="400" height="140" as="geometry" />
        </mxCell>
        <mxCell id="mLnGncNZCkYvfxPz8yqP-32" style="edgeStyle=orthogonalEdgeStyle;rounded=0;orthogonalLoop=1;jettySize=auto;html=1;exitX=0.5;exitY=1;exitDx=0;exitDy=0;fontSize=65;strokeColor=#457B9D;strokeWidth=3;labelBackgroundColor=#F1FAEE;fontColor=#1D3557;" edge="1" parent="1" source="mLnGncNZCkYvfxPz8yqP-31">
          <mxGeometry relative="1" as="geometry">
            <mxPoint x="650" y="860" as="targetPoint" />
          </mxGeometry>
        </mxCell>
        <mxCell id="mLnGncNZCkYvfxPz8yqP-31" value="挂件缓存" style="rounded=0;whiteSpace=wrap;html=1;fontSize=65;fillColor=#A8DADC;strokeColor=#457B9D;fontColor=#1D3557;" vertex="1" parent="1">
          <mxGeometry x="1210" y="660" width="300" height="110" as="geometry" />
        </mxCell>
        <mxCell id="mLnGncNZCkYvfxPz8yqP-35" style="edgeStyle=orthogonalEdgeStyle;rounded=0;orthogonalLoop=1;jettySize=auto;html=1;exitX=0.5;exitY=0.5;exitDx=0;exitDy=60;exitPerimeter=0;fontSize=65;strokeColor=#457B9D;strokeWidth=3;labelBackgroundColor=#F1FAEE;fontColor=#1D3557;" edge="1" parent="1" source="mLnGncNZCkYvfxPz8yqP-33" target="mLnGncNZCkYvfxPz8yqP-34">
          <mxGeometry relative="1" as="geometry" />
        </mxCell>
        <mxCell id="mLnGncNZCkYvfxPz8yqP-33" value="开始" style="html=1;dashed=0;whitespace=wrap;shape=mxgraph.dfd.start;fontSize=65;fillColor=#A8DADC;strokeColor=#457B9D;fontColor=#1D3557;" vertex="1" parent="1">
          <mxGeometry x="1830" y="930" width="300" height="120" as="geometry" />
        </mxCell>
        <mxCell id="mLnGncNZCkYvfxPz8yqP-39" style="edgeStyle=orthogonalEdgeStyle;rounded=0;orthogonalLoop=1;jettySize=auto;html=1;exitX=1;exitY=0.5;exitDx=0;exitDy=0;fontSize=65;strokeColor=#457B9D;strokeWidth=3;labelBackgroundColor=#F1FAEE;fontColor=#1D3557;" edge="1" parent="1" source="mLnGncNZCkYvfxPz8yqP-34" target="mLnGncNZCkYvfxPz8yqP-38">
          <mxGeometry relative="1" as="geometry" />
        </mxCell>
        <mxCell id="mLnGncNZCkYvfxPz8yqP-34" value="请求推荐页数据" style="rounded=0;whiteSpace=wrap;html=1;fontSize=65;strokeColor=#457B9D;fillColor=#A8DADC;fontColor=#1D3557;" vertex="1" parent="1">
          <mxGeometry x="1710" y="1250" width="540" height="160" as="geometry" />
        </mxCell>
        <mxCell id="mLnGncNZCkYvfxPz8yqP-37" value="更新" style="edgeStyle=orthogonalEdgeStyle;rounded=0;orthogonalLoop=1;jettySize=auto;html=1;fontSize=65;strokeColor=#457B9D;strokeWidth=3;labelBackgroundColor=#F1FAEE;fontColor=#1D3557;" edge="1" parent="1" source="mLnGncNZCkYvfxPz8yqP-36" target="mLnGncNZCkYvfxPz8yqP-31">
          <mxGeometry relative="1" as="geometry" />
        </mxCell>
        <mxCell id="mLnGncNZCkYvfxPz8yqP-45" style="edgeStyle=orthogonalEdgeStyle;rounded=0;orthogonalLoop=1;jettySize=auto;html=1;exitX=0.5;exitY=1;exitDx=0;exitDy=0;entryX=0.5;entryY=0.5;entryDx=0;entryDy=-60;entryPerimeter=0;fontSize=65;strokeColor=#457B9D;strokeWidth=3;labelBackgroundColor=#F1FAEE;fontColor=#1D3557;" edge="1" parent="1" source="mLnGncNZCkYvfxPz8yqP-36" target="mLnGncNZCkYvfxPz8yqP-44">
          <mxGeometry relative="1" as="geometry" />
        </mxCell>
        <mxCell id="mLnGncNZCkYvfxPz8yqP-36" value="保存数据到缓存" style="rounded=0;whiteSpace=wrap;html=1;fontSize=65;strokeColor=#457B9D;fillColor=#A8DADC;fontColor=#1D3557;" vertex="1" parent="1">
          <mxGeometry x="1690" y="2040" width="540" height="160" as="geometry" />
        </mxCell>
        <mxCell id="mLnGncNZCkYvfxPz8yqP-70" style="edgeStyle=orthogonalEdgeStyle;curved=0;rounded=1;sketch=0;orthogonalLoop=1;jettySize=auto;html=1;exitX=1;exitY=0.5;exitDx=0;exitDy=0;fontColor=#1D3557;strokeColor=#457B9D;fillColor=#A8DADC;entryX=0;entryY=0.5;entryDx=0;entryDy=0;fontSize=13;" edge="1" parent="1" source="mLnGncNZCkYvfxPz8yqP-38" target="mLnGncNZCkYvfxPz8yqP-71">
          <mxGeometry relative="1" as="geometry" />
        </mxCell>
        <mxCell id="mLnGncNZCkYvfxPz8yqP-38" value="短视频请求" style="rounded=0;whiteSpace=wrap;html=1;fontSize=65;strokeColor=#457B9D;fillColor=#A8DADC;fontColor=#1D3557;" vertex="1" parent="1">
          <mxGeometry x="2420" y="1250" width="540" height="160" as="geometry" />
        </mxCell>
        <mxCell id="mLnGncNZCkYvfxPz8yqP-42" style="edgeStyle=orthogonalEdgeStyle;rounded=0;orthogonalLoop=1;jettySize=auto;html=1;entryX=1;entryY=0.5;entryDx=0;entryDy=0;fontSize=65;strokeColor=#457B9D;strokeWidth=3;labelBackgroundColor=#F1FAEE;fontColor=#1D3557;" edge="1" parent="1" source="mLnGncNZCkYvfxPz8yqP-40" target="mLnGncNZCkYvfxPz8yqP-41">
          <mxGeometry relative="1" as="geometry" />
        </mxCell>
        <mxCell id="mLnGncNZCkYvfxPz8yqP-40" value="数据封装" style="rounded=0;whiteSpace=wrap;html=1;fontSize=65;strokeColor=#457B9D;fillColor=#A8DADC;fontColor=#1D3557;" vertex="1" parent="1">
          <mxGeometry x="2420" y="1790" width="540" height="160" as="geometry" />
        </mxCell>
        <mxCell id="mLnGncNZCkYvfxPz8yqP-43" style="edgeStyle=orthogonalEdgeStyle;rounded=0;orthogonalLoop=1;jettySize=auto;html=1;exitX=0.5;exitY=1;exitDx=0;exitDy=0;fontSize=65;strokeColor=#457B9D;strokeWidth=3;labelBackgroundColor=#F1FAEE;fontColor=#1D3557;" edge="1" parent="1" source="mLnGncNZCkYvfxPz8yqP-41" target="mLnGncNZCkYvfxPz8yqP-36">
          <mxGeometry relative="1" as="geometry" />
        </mxCell>
        <mxCell id="mLnGncNZCkYvfxPz8yqP-41" value="数据封装" style="rounded=0;whiteSpace=wrap;html=1;fontSize=65;strokeColor=#457B9D;fillColor=#A8DADC;fontColor=#1D3557;" vertex="1" parent="1">
          <mxGeometry x="1690" y="1790" width="540" height="160" as="geometry" />
        </mxCell>
        <mxCell id="mLnGncNZCkYvfxPz8yqP-44" value="结束" style="html=1;dashed=0;whitespace=wrap;shape=mxgraph.dfd.start;fontSize=65;strokeColor=#457B9D;fillColor=#A8DADC;fontColor=#1D3557;" vertex="1" parent="1">
          <mxGeometry x="1810" y="2380" width="300" height="120" as="geometry" />
        </mxCell>
        <mxCell id="mLnGncNZCkYvfxPz8yqP-73" style="edgeStyle=orthogonalEdgeStyle;curved=0;rounded=1;sketch=0;orthogonalLoop=1;jettySize=auto;html=1;exitX=1;exitY=0.5;exitDx=0;exitDy=0;entryX=0.5;entryY=1;entryDx=0;entryDy=0;entryPerimeter=0;fontColor=#1D3557;strokeColor=#457B9D;fillColor=#A8DADC;" edge="1" parent="1" source="mLnGncNZCkYvfxPz8yqP-71" target="mLnGncNZCkYvfxPz8yqP-72">
          <mxGeometry relative="1" as="geometry" />
        </mxCell>
        <mxCell id="mLnGncNZCkYvfxPz8yqP-71" value="短视频请求" style="rounded=0;whiteSpace=wrap;html=1;fontSize=65;strokeColor=#457B9D;fillColor=#A8DADC;fontColor=#1D3557;" vertex="1" parent="1">
          <mxGeometry x="3260" y="1250" width="540" height="160" as="geometry" />
        </mxCell>
        <mxCell id="mLnGncNZCkYvfxPz8yqP-91" style="edgeStyle=orthogonalEdgeStyle;curved=0;rounded=1;sketch=0;orthogonalLoop=1;jettySize=auto;html=1;exitX=1;exitY=0.5;exitDx=0;exitDy=0;exitPerimeter=0;entryX=1;entryY=0.5;entryDx=0;entryDy=0;fontColor=#1D3557;strokeColor=#457B9D;fillColor=#A8DADC;" edge="1" parent="1" source="mLnGncNZCkYvfxPz8yqP-72" target="mLnGncNZCkYvfxPz8yqP-90">
          <mxGeometry relative="1" as="geometry" />
        </mxCell>
        <mxCell id="mLnGncNZCkYvfxPz8yqP-72" value="数据库" style="strokeWidth=2;html=1;shape=mxgraph.flowchart.database;whiteSpace=wrap;rounded=0;shadow=1;sketch=0;fontColor=#1D3557;fillColor=#A8DADC;direction=south;fontSize=50;" vertex="1" parent="1">
          <mxGeometry x="3960" y="1250" width="320" height="160" as="geometry" />
        </mxCell>
        <mxCell id="mLnGncNZCkYvfxPz8yqP-92" style="edgeStyle=orthogonalEdgeStyle;curved=0;rounded=1;sketch=0;orthogonalLoop=1;jettySize=auto;html=1;entryX=1;entryY=0.5;entryDx=0;entryDy=0;fontColor=#1D3557;strokeColor=#457B9D;fillColor=#A8DADC;" edge="1" parent="1" source="mLnGncNZCkYvfxPz8yqP-90" target="mLnGncNZCkYvfxPz8yqP-40">
          <mxGeometry relative="1" as="geometry" />
        </mxCell>
        <mxCell id="mLnGncNZCkYvfxPz8yqP-90" value="数据封装" style="rounded=0;whiteSpace=wrap;html=1;fontSize=65;strokeColor=#457B9D;fillColor=#A8DADC;fontColor=#1D3557;" vertex="1" parent="1">
          <mxGeometry x="3250" y="1790" width="540" height="160" as="geometry" />
        </mxCell>
      </root>
    </mxGraphModel>
  </diagram>
</mxfile>
